<svg width="100" height="100" viewBox="0 0 100 100" fill="none" xmlns="http://www.w3.org/2000/svg">
<path d="M42.5 100C65.9721 100 85 80.9721 85 57.5C85 34.0279 65.9721 15 42.5 15C19.0279 15 0 34.0279 0 57.5C0 80.9721 19.0279 100 42.5 100Z" fill="#A1BCE8"/>
<path d="M20.5 69C21.7 69 22.8 68.5 23.6 67.7L48 43.6L57.9 53.4001C59.6 55.1001 62.3 55.1001 64 53.4001L91.3 26.4V36.1C91.3 38.5 93.2 40.4001 95.6 40.4001C98 40.4001 99.9 38.5 99.9 36.1V16.1C99.9 13.7 98 11.8 95.6 11.8H75.4C73 11.8 71.1 13.7 71.1 16.1C71.1 18.5 73 20.4 75.4 20.4H85.2L61 44.3L51 34.5C49.3 32.8 46.6 32.8 44.9 34.5L17.4 61.7001C15.7 63.4001 15.7 66.1001 17.4 67.8001C18.2 68.5001 19.3 69 20.5 69Z" fill="#24252E"/>
<path d="M35.4002 81.9C35.4002 79.5 33.5002 77.6 31.1002 77.6H20.5002C18.1002 77.6 16.2002 79.5 16.2002 81.9C16.2002 84.3 18.1002 86.2 20.5002 86.2H31.2002C33.5002 86.2 35.4002 84.2 35.4002 81.9Z" fill="#1C303A" fill-opacity="0.5"/>
<path d="M95.7002 77.6H47.0002C44.6002 77.6 42.7002 79.5 42.7002 81.9C42.7002 84.3 44.6002 86.2 47.0002 86.2H95.6002C98.0002 86.2 99.9002 84.3 99.9002 81.9C100 79.5 98.1002 77.6 95.7002 77.6Z" fill="#24252E"/>
</svg>
