<svg width="101" height="100" viewBox="0 0 101 100" fill="none" xmlns="http://www.w3.org/2000/svg">
<g clip-path="url(#clip0_877_230)">
<path d="M42.8335 100C66.3056 100 85.3335 80.9721 85.3335 57.5C85.3335 34.0279 66.3056 15 42.8335 15C19.3614 15 0.333496 34.0279 0.333496 57.5C0.333496 80.9721 19.3614 100 42.8335 100Z" fill="#FBBDAA"/>
<path d="M55.3336 85.4C54.1336 85.4 53.0336 84.9 52.2336 84.1L45.7336 77.6C44.0336 75.9 44.0336 73.1001 45.7336 71.4001C47.4336 69.7001 50.2336 69.7001 51.9336 71.4001L55.3336 74.8L87.0336 43.1C93.1336 37 93.1336 27.1 87.0336 21C80.9336 14.9 71.0336 14.9 64.9336 21L58.4336 27.5C56.7336 29.2001 53.9336 29.2001 52.2336 27.5L45.8336 21.1C39.7336 15 29.8336 15 23.7336 21.1C17.6336 27.2 17.6336 37.1 23.7336 43.2001L41.0336 60.5C42.7336 62.2001 42.7336 65 41.0336 66.7C39.3336 68.4 36.5336 68.4 34.8336 66.7L17.4336 49.4001C7.93359 39.9001 7.93359 24.4 17.4336 14.9C26.9336 5.40005 42.4336 5.40005 51.9336 14.9L55.2336 18.2L58.6336 14.8C68.1336 5.30005 83.6336 5.30005 93.1336 14.8C102.634 24.3 102.634 39.8 93.1336 49.3L58.4336 84.1C57.6336 85 56.4336 85.4 55.3336 85.4Z" fill="#1C303A"/>
<path d="M32.0336 37.4C33.2336 36.2 33.4336 34.6 32.9336 33.2C32.7336 32.8 32.7336 32.2 32.8336 31.7C33.0336 30.8 33.7336 30.1 34.6336 29.9C35.1336 29.8 35.6336 29.8 36.1336 30C37.5336 30.5 39.1336 30.3 40.2336 29.2L40.3336 29.1C42.1336 27.3 41.6336 24.2 39.2336 23.1C37.6336 22.4 35.7336 22.1 33.8336 22.4C29.5336 23 26.0336 26.5 25.3336 30.9C25.0336 32.8 25.3336 34.7 26.0336 36.3C27.0336 38.6 30.2336 39.2 32.0336 37.4Z" fill="#1C303A" fill-opacity="0.5"/>
</g>
<defs>
<clipPath id="clip0_877_230">
<rect width="100" height="100" fill="white" transform="translate(0.333496)"/>
</clipPath>
</defs>
</svg>
