<svg width="101" height="100" viewBox="0 0 101 100" fill="none" xmlns="http://www.w3.org/2000/svg">
<g clip-path="url(#clip0_877_85)">
<path d="M43.1665 100C66.6386 100 85.6665 80.9721 85.6665 57.5C85.6665 34.0279 66.6386 15 43.1665 15C19.6944 15 0.666504 34.0279 0.666504 57.5C0.666504 80.9721 19.6944 100 43.1665 100Z" fill="#A1BCE8"/>
<path d="M99.5665 18.6C98.8665 17.1 98.0665 15.7 96.8665 14.6C96.2665 14 95.6665 13.5 95.0665 13.1C94.3665 12.6 93.7665 12.2 92.9665 11.9C92.5665 11.7 92.1665 11.6 91.7665 11.5C90.9665 11.3 90.1665 11.1 89.2665 11C88.7665 11 88.3665 10.9 87.9665 10.9H37.3665C30.3665 10.9 24.6665 16.6 24.6665 23.6V57.8C24.6665 60.1 26.5665 62 28.8665 62C31.1665 62 33.0665 60.1 33.0665 57.8L33.1665 23.5C33.1665 21 34.8665 19.3 37.3665 19.3H87.8665C90.3665 19.3 92.0665 21 92.0665 23.5L92.1665 32L92.0665 40.6V74.3C92.0665 76.6 90.1665 78.5 87.8665 78.5H37.3665C35.0665 78.5 33.1665 76.6 33.1665 74.3V73.3C33.1665 71 31.2665 69.1 28.9665 69.1C26.6665 69.1 24.7665 71 24.7665 73.3V74.3C24.7665 81.3 30.4665 87 37.4665 87H87.9665C94.9665 87 100.667 81.3 100.667 74.3V23.6C100.567 21.8 100.267 20.1 99.5665 18.6Z" fill="#1C303A"/>
<path d="M76.0664 44.7H66.8664V35.5C66.8664 33.2 64.9664 31.2 62.5664 31.2C60.2664 31.2 58.3664 33.1 58.3664 35.5V44.7H49.1664C46.6664 44.7 44.6664 46.8 44.9664 49.4C45.1664 51.6 47.1664 53.2 49.3664 53.2H58.3664V62.4C58.3664 64.9 60.4664 66.8999 63.0664 66.5999C65.2664 66.3999 66.8664 64.4 66.8664 62.2V53.2H76.0664C78.3664 53.2 80.2664 51.2999 80.2664 49C80.2664 46.7 78.4664 44.7 76.0664 44.7Z" fill="#1C303A" fill-opacity="0.5"/>
</g>
<defs>
<clipPath id="clip0_877_85">
<rect width="100" height="100" fill="white" transform="translate(0.666504)"/>
</clipPath>
</defs>
</svg>
