<svg width="100" height="100" viewBox="0 0 100 100" fill="none" xmlns="http://www.w3.org/2000/svg">
<path d="M42.5 100C65.9721 100 85 80.9721 85 57.5C85 34.0279 65.9721 15 42.5 15C19.0279 15 0 34.0279 0 57.5C0 80.9721 19.0279 100 42.5 100Z" fill="#FBBDAA"/>
<path d="M94.1 28L73.6 25C73.3 25 73 24.7 72.9 24.5L63.7 5.80002C63 4.40002 61.9 3.30002 60.6 2.70002C57.1 1.00002 53 2.40002 51.3 5.80002L42.1 24.4C42 24.7 41.7 24.9 41.4 24.9L20.9 27.9C19.4 28.1 18 28.8 16.9 29.9C14.2 32.6 14.3 37 17 39.6L31.8 54.1C32 54.3 32.1 54.7 32.1 55C31.7 57.4 33.5 59.5 35.9 59.5H36.5C38.4 59.5 40 58.1 40.3 56.3L40.7 54.1C41 52.2 40.4 50.2 39 48.9L26.4 36.5C26.3 36.4 26.2 36.2 26.1 36C26 35.5 26.4 35.1 26.8 35L44.4 32.4C46.3 32.1 48 30.9 48.8 29.2L56.6 13.3C56.7 13.1 56.8 13 57 12.9C57.4 12.7 57.9 12.9 58.1 13.3L66 29.2C66.9 30.9 68.5 32.1 70.4 32.4L88 35C88.2 35 88.4 35.1 88.5 35.2C88.8 35.5 88.8 36.1 88.5 36.4L75.9 48.9C74.5 50.3 73.9 52.2 74.2 54.1L77.2 71.6C77.3 71.9 77.1 72.2 76.9 72.4C76.6 72.6 76.3 72.6 76 72.5L60.3 64.2C59.5 63.8 58.5 63.5 57.6 63.5C56.6 63.5 55.7 63.7 54.9 64.2L39.2 72.5C39 72.6 38.8 72.6 38.7 72.6C38.2 72.5 37.9 72.1 38 71.6V71.3C38.4 68.8 36.5 66.4 33.9 66.4C31.9 66.4 30.1 67.9 29.8 69.9L28.9 75.2C28.7 76.4 28.7 77.7 29.2 78.9C30.7 82.9 35.2 84.5 38.9 82.6L57 73.1C57.3 72.9 57.6 72.9 57.9 73.1L76.2 82.7C77.2 83.2 78.3 83.5 79.4 83.5C79.8 83.5 80.2 83.5 80.5 83.4C84.3 82.8 86.8 79.2 86.1 75.4L82.8 55C82.7 54.7 82.9 54.3 83.1 54.1L97.9 39.6C99 38.5 99.7 37.2 99.9 35.7C100.5 32 97.9 28.5 94.1 28Z" fill="#1C303A"/>
<path d="M54.0999 44.8001C55.9999 44.5001 57.6999 43.3001 58.4999 41.6001L61.9999 34.4001C62.7999 32.8001 62.4999 30.9001 61.1999 29.7001C59.1999 27.7001 55.8999 28.3001 54.5999 30.8001L51.6999 36.7001C51.5999 37.0001 51.2999 37.2001 50.9999 37.2001L45.6999 38.0001C42.4999 38.5001 41.1999 42.4001 43.4999 44.6001L43.5999 44.7001C44.4999 45.6001 45.6999 46.0001 46.8999 45.8001L54.0999 44.8001Z" fill="#1C303A" fill-opacity="0.5"/>
</svg>
